Coordinates
version=1
nRows=10
nColumns=40
inDegrees=yes

Units are S.I. units (second, meters, Newtons, ...)
Angles are in degrees.

endheader
time	pelvis_tilt	pelvis_list	pelvis_rotation	pelvis_tx	pelvis_ty	pelvis_tz	hip_flexion_r	hip_adduction_r	hip_rotation_r	knee_angle_r	knee_angle_r_beta	ankle_angle_r	subtalar_angle_r	mtp_angle_r	hip_flexion_l	hip_adduction_l	hip_rotation_l	knee_angle_l	knee_angle_l_beta	ankle_angle_l	subtalar_angle_l	mtp_angle_l	lumbar_extension	lumbar_bending	lumbar_rotation	arm_flex_r	arm_add_r	arm_rot_r	elbow_flex_r	pro_sup_r	wrist_flex_r	wrist_dev_r	arm_flex_l	arm_add_l	arm_rot_l	elbow_flex_l	pro_sup_l	wrist_flex_l	wrist_dev_l
      1.94000000	      0.29626561	      3.43574604	     -4.42469179	      0.44665927	      0.89780353	     -1.60173422	      6.08290105	     -6.45106259	     -4.80555640	    -58.10667770	     -1.01415284	    -19.75134636	    -15.69885391	     11.29151934	     13.10892019	     -5.11604757	     15.00677839	    -16.52097933	     -0.28834548	      2.72723931	      1.07787758	     -3.23028861	     -6.06490930	     -3.11380927	      2.57927531	     11.01215810	     -8.78461405	     19.80874971	     21.75992714	     89.95437384	      0.00000000	      0.00000000	     -1.37321516	      8.30592576	    -26.04468239	     14.23661082	     89.95437384	      0.00000000	      0.00000000
      1.95000000	      0.70714811	      3.39406769	     -4.42101523	      0.45654834	      0.89900862	     -1.60263010	      7.15103332	     -6.38821907	     -4.56578204	    -59.80277285	     -1.04375529	    -17.60390398	    -16.51212006	     11.21748966	     11.83818874	     -5.27457035	     14.91879936	    -16.34931306	     -0.28534934	      3.30231373	      0.72829727	     -3.32131941	     -6.47541315	     -2.96890972	      2.50274709	     10.71481172	     -8.71988303	     20.12565012	     21.18623831	     89.95437384	      0.00000000	      0.00000000	     -0.50917397	      8.45717199	    -25.65196144	     14.67271108	     89.95437384	      0.00000000	      0.00000000
      1.96000000	      1.17681913	      3.45241929	     -4.42731689	      0.46670233	      0.90030180	     -1.60357578	      8.12997901	     -6.46937047	     -4.32642193	    -61.27107513	     -1.06938200	    -14.98874011	    -16.40543791	     13.18561804	     10.33951775	     -5.64103315	     14.78340049	    -15.77148595	     -0.27526436	      3.61884603	      1.01042561	     -3.50952839	     -6.90559938	     -2.92757366	      2.33501153	     10.44665065	     -8.64657717	     20.40781610	     20.63125052	     89.95437384	      0.00000000	      0.00000000	      0.30346261	      8.41218415	    -23.92462016	     14.98440544	     89.95437384	      0.00000000	      0.00000000
      1.97000000	      1.49288230	      3.27235666	     -4.25263383	      0.47629728	      0.90135377	     -1.60448074	      9.22185561	     -6.11070622	     -4.09569585	    -62.39761965	     -1.08904391	    -13.30628142	    -16.83546243	     13.12571467	      9.27753555	     -5.65508994	     14.38110604	    -15.80020680	     -0.27576563	      4.26902178	      0.86311996	     -3.59369741	     -7.21946678	     -2.61396414	      2.09422705	     10.13148191	     -8.57744377	     20.57278217	     20.06846775	     89.95437384	      0.00000000	      0.00000000	      1.21661487	      8.59313393	    -23.74631194	     15.46522858	     89.95437384	      0.00000000	      0.00000000
      1.98000000	      1.76099261	      3.02026113	     -3.97384385	      0.48586949	      0.90232161	     -1.60556639	     10.34447305	     -5.81790422	     -4.20226581	    -63.24794021	     -1.10388480	    -12.50876528	    -16.84584387	     12.95885207	      8.30218695	     -5.56207382	     14.20842632	    -15.84921640	     -0.27662101	      4.62012172	      0.81209480	     -3.60439266	     -7.47511143	     -2.18869604	      1.77594247	      9.75574085	     -8.57934782	     20.59197682	     19.66427982	     89.95437384	      0.00000000	      0.00000000	      2.12778268	      8.75991969	    -23.55744949	     15.96654755	     89.95437384	      0.00000000	      0.00000000
      1.99000000	      2.01887685	      2.76911261	     -3.77996332	      0.49555905	      0.90329629	     -1.60626362	     11.32220674	     -5.24590628	     -3.91681931	    -63.72638092	     -1.11223517	    -10.74301786	    -17.15375170	     12.91305815	      7.20267313	     -5.51151082	     13.48956701	    -15.74757244	     -0.27484699	      5.53428106	      0.65340278	     -3.68146581	     -7.64545268	     -1.79225852	      1.54360114	      9.45542076	     -8.45721799	     20.54123060	     18.91500470	     89.95437384	      0.00000000	      0.00000000	      3.03819140	      8.95574921	    -22.80393241	     16.55112526	     89.95437384	      0.00000000	      0.00000000
      2.00000000	      2.27091432	      2.48178102	     -3.46954828	      0.50509403	      0.90415079	     -1.60725974	     12.31985543	     -4.77412006	     -3.93784155	    -64.02386462	     -1.11742724	     -9.55122569	    -17.08674902	     12.86009183	      6.17081205	     -5.39203229	     13.01574853	    -15.68544783	     -0.27376271	      6.13234745	      0.65468570	     -3.67583530	     -7.83802757	     -1.32430603	      1.14843914	      9.09188153	     -8.42227565	     20.38885461	     18.42761483	     89.95437384	      0.00000000	      0.00000000	      3.88512807	      9.06479895	    -22.28668238	     17.10868545	     89.95437384	      0.00000000	      0.00000000
      2.01000000	      2.78331055	      2.19022760	     -2.98037603	      0.51467297	      0.90546444	     -1.60861938	     12.86938558	     -4.32233882	     -4.10004221	    -63.94510681	     -1.11605265	     -8.05122083	    -16.66727001	     13.94094226	      4.68322544	     -5.42164283	     11.73979888	    -15.31466552	     -0.26729134	      6.78495348	      1.62027733	     -3.24771627	     -8.34132173	     -0.83331906	      0.51727761	      8.79034075	     -8.29592111	     19.47282296	     17.93466918	     89.95437384	      0.00000000	      0.00000000	      4.72364009	      9.08007454	    -20.93177924	     17.68168397	     89.95437384	      0.00000000	      0.00000000
      2.02000000	      2.81594007	      1.92461009	     -2.69821304	      0.52380216	      0.90581425	     -1.60941658	     14.09969262	     -3.82072368	     -4.11557065	    -63.85493791	     -1.11447891	     -6.65195977	    -16.46546988	     13.73470339	      3.94398387	     -5.24182712	     11.45488179	    -15.24980254	     -0.26615926	      7.33310046	      1.44125635	     -3.25375956	     -8.30575575	     -0.40199196	      0.21232340	      8.34816836	     -8.33637266	     19.32726630	     17.65781558	     89.95437384	      0.00000000	      0.00000000	      5.56823549	      9.31171239	    -20.74902784	     18.43963483	     89.95437384	      0.00000000	      0.00000000
      2.03000000	      2.88122085	      1.67349080	     -2.36171838	      0.53291449	      0.90617834	     -1.61034915	     15.21633735	     -3.32179733	     -4.14063682	    -63.48309340	     -1.10798900	     -5.23928802	    -16.11286029	     13.44577387	      3.16294204	     -5.07069429	     11.07211335	    -15.20049158	     -0.26529863	      7.80148971	      1.20905223	     -3.26371060	     -8.29403625	      0.02966808	     -0.13459210	      7.89417290	     -8.38109829	     18.98994914	     17.40049903	     89.95437384	      0.00000000	      0.00000000	      6.41557327	      9.52774108	    -20.43348300	     19.24012455	     89.95437384	      0.00000000	      0.00000000
